<?xml version="1.0" encoding="UTF-8"?>
<!DOCTYPE score-partwise PUBLIC "-//Recordare//DTD MusicXML 3.1 Partwise//EN" "http://www.musicxml.org/dtds/partwise.dtd">
<score-partwise version="3.1">
  <work>
    <work-title>Jig Test (6/8)</work-title>
  </work>
  <part-list>
    <score-part id="P1">
      <part-name>Melody</part-name>
    </score-part>
  </part-list>
  <part id="P1">
    <!-- Measure 1: G A B | C D E (6 eighth notes) -->
    <measure number="1">
      <attributes>
        <divisions>2</divisions>
        <key>
          <fifths>0</fifths>
        </key>
        <time>
          <beats>6</beats>
          <beat-type>8</beat-type>
        </time>
        <clef>
          <sign>G</sign>
          <line>2</line>
        </clef>
      </attributes>
      <note>
        <pitch><step>G</step><octave>4</octave></pitch>
        <duration>1</duration>
        <type>eighth</type>
      </note>
      <note>
        <pitch><step>A</step><octave>4</octave></pitch>
        <duration>1</duration>
        <type>eighth</type>
      </note>
      <note>
        <pitch><step>B</step><octave>4</octave></pitch>
        <duration>1</duration>
        <type>eighth</type>
      </note>
      <note>
        <pitch><step>C</step><octave>5</octave></pitch>
        <duration>1</duration>
        <type>eighth</type>
      </note>
      <note>
        <pitch><step>D</step><octave>5</octave></pitch>
        <duration>1</duration>
        <type>eighth</type>
      </note>
      <note>
        <pitch><step>E</step><octave>5</octave></pitch>
        <duration>1</duration>
        <type>eighth</type>
      </note>
    </measure>
    <!-- Measure 2: D (dotted quarter) | C B A -->
    <measure number="2">
      <note>
        <pitch><step>D</step><octave>5</octave></pitch>
        <duration>3</duration>
        <type>quarter</type>
        <dot/>
      </note>
      <note>
        <pitch><step>C</step><octave>5</octave></pitch>
        <duration>1</duration>
        <type>eighth</type>
      </note>
      <note>
        <pitch><step>B</step><octave>4</octave></pitch>
        <duration>1</duration>
        <type>eighth</type>
      </note>
      <note>
        <pitch><step>A</step><octave>4</octave></pitch>
        <duration>1</duration>
        <type>eighth</type>
      </note>
    </measure>
    <!-- Measure 3: G A B | C (quarter) A -->
    <measure number="3">
      <note>
        <pitch><step>G</step><octave>4</octave></pitch>
        <duration>1</duration>
        <type>eighth</type>
      </note>
      <note>
        <pitch><step>A</step><octave>4</octave></pitch>
        <duration>1</duration>
        <type>eighth</type>
      </note>
      <note>
        <pitch><step>B</step><octave>4</octave></pitch>
        <duration>1</duration>
        <type>eighth</type>
      </note>
      <note>
        <pitch><step>C</step><octave>5</octave></pitch>
        <duration>2</duration>
        <type>quarter</type>
      </note>
      <note>
        <pitch><step>A</step><octave>4</octave></pitch>
        <duration>1</duration>
        <type>eighth</type>
      </note>
    </measure>
    <!-- Measure 4: G (dotted half = 6 eighths) -->
    <measure number="4">
      <note>
        <pitch><step>G</step><octave>4</octave></pitch>
        <duration>6</duration>
        <type>half</type>
        <dot/>
      </note>
    </measure>
    <!-- Measure 5: E E E | D D D -->
    <measure number="5">
      <note>
        <pitch><step>E</step><octave>5</octave></pitch>
        <duration>1</duration>
        <type>eighth</type>
      </note>
      <note>
        <pitch><step>E</step><octave>5</octave></pitch>
        <duration>1</duration>
        <type>eighth</type>
      </note>
      <note>
        <pitch><step>E</step><octave>5</octave></pitch>
        <duration>1</duration>
        <type>eighth</type>
      </note>
      <note>
        <pitch><step>D</step><octave>5</octave></pitch>
        <duration>1</duration>
        <type>eighth</type>
      </note>
      <note>
        <pitch><step>D</step><octave>5</octave></pitch>
        <duration>1</duration>
        <type>eighth</type>
      </note>
      <note>
        <pitch><step>D</step><octave>5</octave></pitch>
        <duration>1</duration>
        <type>eighth</type>
      </note>
    </measure>
    <!-- Measure 6: C (dotted quarter) | B A G -->
    <measure number="6">
      <note>
        <pitch><step>C</step><octave>5</octave></pitch>
        <duration>3</duration>
        <type>quarter</type>
        <dot/>
      </note>
      <note>
        <pitch><step>B</step><octave>4</octave></pitch>
        <duration>1</duration>
        <type>eighth</type>
      </note>
      <note>
        <pitch><step>A</step><octave>4</octave></pitch>
        <duration>1</duration>
        <type>eighth</type>
      </note>
      <note>
        <pitch><step>G</step><octave>4</octave></pitch>
        <duration>1</duration>
        <type>eighth</type>
      </note>
    </measure>
    <!-- Measure 7: A B C | D (quarter) B -->
    <measure number="7">
      <note>
        <pitch><step>A</step><octave>4</octave></pitch>
        <duration>1</duration>
        <type>eighth</type>
      </note>
      <note>
        <pitch><step>B</step><octave>4</octave></pitch>
        <duration>1</duration>
        <type>eighth</type>
      </note>
      <note>
        <pitch><step>C</step><octave>5</octave></pitch>
        <duration>1</duration>
        <type>eighth</type>
      </note>
      <note>
        <pitch><step>D</step><octave>5</octave></pitch>
        <duration>2</duration>
        <type>quarter</type>
      </note>
      <note>
        <pitch><step>B</step><octave>4</octave></pitch>
        <duration>1</duration>
        <type>eighth</type>
      </note>
    </measure>
    <!-- Measure 8: G (dotted half) - final -->
    <measure number="8">
      <note>
        <pitch><step>G</step><octave>4</octave></pitch>
        <duration>6</duration>
        <type>half</type>
        <dot/>
      </note>
      <barline location="right">
        <bar-style>light-heavy</bar-style>
      </barline>
    </measure>
  </part>
</score-partwise>
